<?xml version="1.0" encoding="utf-8"?>
<!-- Generator: Adobe Illustrator 19.0.0, SVG Export Plug-In . SVG Version: 6.00 Build 0)  -->
<svg version="1.1" id="Layer_1" xmlns="http://www.w3.org/2000/svg" xmlns:xlink="http://www.w3.org/1999/xlink" x="0px" y="0px"
	 viewBox="0 0 612 792" style="enable-background:new 0 0 612 792;" xml:space="preserve">
<style type="text/css">
	.st0{fill:#F9A01C;stroke:#871719;stroke-width:2;stroke-miterlimit:10;}
	.st1{fill:#871719;}
	.st2{fill:#FFFFFF;}
</style>
<g id="XMLID_99_">
	<g id="XMLID_105_">
		<path id="XMLID_106_" class="st0" d="M220.7,224.3V114.4c0-1.6,1.3-2.8,2.8-2.8h27.5c19.8,0,34.7,4.7,44.8,14.2
			c10.1,9.5,15.1,23.5,15.1,42c0,8.9-1.4,17-4.2,24.3c-2.8,7.3-6.9,13.5-12.2,18.7c-5.3,5.2-11.8,9.2-19.3,12
			c-7.6,2.8-16.1,4.2-25.6,4.2h-26.1C222,227.1,220.7,225.8,220.7,224.3z"/>
	</g>
	<path id="XMLID_104_" class="st1" d="M223.9,138.6c0.2-0.5,0.8-0.5,1,0c0.9,2,3.2,5.9,9.4,7.1c8.6,1.7,16.9,2.2,21.8,7.7
		c2.4,2.7,7.5,6.6,9.9,2.4c2.4-4.2,5-5.3,8.6-4.2s2,0.5,3,0.7c1,0.3,1.3-0.4,2,0.4c0,0-4,0.8-6.1,4.1c-0.3,0.5-0.6,0.9-0.8,1.4
		c-1.1,2.4-0.2,5.4,2.2,6.5c0.5,0.2,1,0.3,1.6,0.4c2.6,0.3,8.8,3.3,11,7.2c1.2,2.1,10.5,11.3,17.5,12.8c0.5,0.1,0.6,0.9,0,1
		c-5.7,1.6-19.4,4.3-28.9-4.6c-12.2-11.4-19.7-4.2-19.7-4.2s0.9-0.1,1.8-0.2c0.6-0.1,0.9,0.6,0.4,1c-3.8,2.8-11,8.6-12.4,13.5
		c0,0,6.9-21.9,7.6-22.9l-1.4,2.5c-0.2,0.4-0.9,0.3-1-0.1c-0.7-2.8-3.5-8.7-14.2-12.1C224.2,154.7,222,144.4,223.9,138.6z"/>
	<path id="XMLID_103_" class="st1" d="M225.3,194.9l12.8-5c1.7-3.5,4.1-7.9,6.4-7.7c2.6,0.2,0.7,1.6,0.7,1.6
		c-2.4,1.4-4.6,3.9-6.3,6.1l6,2.2l6.8-18.9L225.3,194.9z"/>
	<g id="XMLID_100_">
		<path id="XMLID_102_" class="st2" d="M224.8,138.4c0.2-0.5,0.8-0.5,1,0c0.8,2,3.2,5.7,9.2,6.9c8.4,1.6,16.6,2.1,21.4,7.6
			c2.3,2.7,7.3,6.5,9.6,2.3c2.3-4.1,4.9-5.1,8.4-4.1c3.5,1,1.9,0.4,2.9,0.7s1.2-0.4,1.9,0.4c0,0-3.9,0.8-5.9,4.1
			c-0.3,0.5-0.5,0.9-0.7,1.3c-1.1,2.3-0.2,5.3,2.1,6.3c0.5,0.2,1,0.3,1.6,0.4c2.6,0.3,8.6,3.2,10.7,7c1.1,2.1,10.2,11.1,17.1,12.5
			c0.5,0.1,0.5,0.9,0,1c-5.6,1.6-19,4.2-28.2-4.5c-11.9-11.2-19.3-4.1-19.3-4.1s0.8-0.1,1.8-0.2c0.5-0.1,0.8,0.6,0.4,0.9
			c-3.7,2.7-10.8,8.4-12.1,13.2c0,0,6.8-21.4,7.5-22.4l-1.3,2.5c-0.2,0.4-0.8,0.3-1-0.1c-0.7-2.7-3.4-8.5-13.9-11.8
			C225.1,154.1,222.9,144.1,224.8,138.4z"/>
		<path id="XMLID_101_" class="st2" d="M225.4,194.2l12.5-4.9c1.6-3.5,4-7.7,6.3-7.6c2.6,0.2,0.7,1.5,0.7,1.5
			c-2.3,1.4-4.5,3.8-6.1,6l5.9,2.2l6.6-18.5L225.4,194.2z"/>
	</g>
</g>
<g id="XMLID_47_">
	<path id="XMLID_96_" class="st1" d="M339.1,177.8l2.7,8.7h-2.2l-0.5-1.8h-2.8l-0.5,1.8H334l2.8-8.7H339.1z M336.8,183.1h1.8l-0.9-3
		L336.8,183.1z"/>
	<path id="XMLID_94_" class="st1" d="M342.7,186.4v-8.7h1.9v8.7H342.7z"/>
	<path id="XMLID_48_" class="st1" d="M346.1,186.4v-8.7h1.9v8.7H346.1z"/>
	<path id="XMLID_49_" class="st1" d="M358.9,179.7l-1.7,0.6c-0.2-0.7-0.7-1-1.5-1c-0.8,0-1.2,0.3-1.2,0.8c0,0.2,0.1,0.4,0.2,0.5
		s0.5,0.3,1,0.4c0.9,0.2,1.5,0.4,1.9,0.5c0.4,0.2,0.8,0.5,1,0.9c0.3,0.4,0.4,0.9,0.4,1.4c0,0.8-0.3,1.5-0.9,2s-1.5,0.9-2.7,0.9
		c-0.9,0-1.6-0.2-2.3-0.6s-1-1-1.2-1.8l1.9-0.4c0.2,0.8,0.8,1.2,1.8,1.2c0.5,0,0.8-0.1,1-0.3s0.3-0.4,0.3-0.6c0-0.3-0.1-0.5-0.3-0.6
		c-0.2-0.1-0.6-0.3-1.2-0.4c-1.1-0.2-1.9-0.5-2.4-0.9s-0.7-1-0.7-1.7c0-0.8,0.3-1.4,0.8-1.9c0.6-0.5,1.3-0.8,2.3-0.8
		C357.3,177.6,358.4,178.3,358.9,179.7z"/>
	<path id="XMLID_51_" class="st1" d="M363,179.9c1,0,1.7,0.3,2.3,1s0.8,1.4,0.8,2.4c0,0.9-0.3,1.7-0.9,2.4c-0.6,0.6-1.3,0.9-2.3,0.9
		c-0.9,0-1.6-0.3-2.2-0.9c-0.5-0.6-0.8-1.4-0.8-2.4c0-0.7,0.1-1.3,0.4-1.7c0.2-0.5,0.6-0.9,1-1.2S362.4,179.9,363,179.9z
		 M363.1,181.1c-0.4,0-0.6,0.1-0.8,0.4c-0.2,0.3-0.3,0.8-0.3,1.7c0,0.8,0.1,1.3,0.3,1.6c0.2,0.3,0.4,0.5,0.8,0.5
		c0.3,0,0.6-0.1,0.8-0.4s0.3-0.8,0.3-1.6c0-0.8-0.1-1.4-0.3-1.7C363.7,181.3,363.4,181.1,363.1,181.1z"/>
	<path id="XMLID_54_" class="st1" d="M367.3,186.4v-8.7h1.9v8.7H367.3z"/>
	<path id="XMLID_56_" class="st1" d="M376.2,180v6.4h-1.8v-1.1c-0.3,0.8-1,1.2-1.9,1.2c-0.5,0-0.9-0.1-1.1-0.3s-0.4-0.4-0.6-0.7
		c-0.1-0.3-0.2-0.8-0.2-1.3V180h1.8v4.2c0,0.6,0.2,0.9,0.7,0.9c0.2,0,0.5-0.1,0.6-0.2s0.3-0.3,0.3-0.4c0-0.2,0.1-0.4,0.1-0.8V180
		H376.2z"/>
	<path id="XMLID_58_" class="st1" d="M379.9,181.5v2.7c0,0.3,0,0.6,0.2,0.7s0.3,0.2,0.7,0.2c0.2,0,0.4,0,0.6,0v1.4
		c-0.5,0.1-0.9,0.1-1.2,0.1c-0.8,0-1.3-0.2-1.7-0.5c-0.3-0.3-0.5-0.8-0.5-1.6v-3h-1V180h1.1l0.2-1.9l1.6-0.1v2h1.4v1.5H379.9z"/>
	<path id="XMLID_60_" class="st1" d="M384.3,177.6v1.9h-1.9v-1.9H384.3z M384.3,180v6.4h-1.9V180H384.3z"/>
	<path id="XMLID_63_" class="st1" d="M388.5,179.9c1,0,1.7,0.3,2.3,1c0.5,0.6,0.8,1.4,0.8,2.4c0,0.9-0.3,1.7-0.9,2.4
		s-1.3,0.9-2.3,0.9c-0.9,0-1.6-0.3-2.2-0.9c-0.5-0.6-0.8-1.4-0.8-2.4c0-0.7,0.1-1.3,0.4-1.7c0.2-0.5,0.6-0.9,1-1.2
		C387.3,180,387.8,179.9,388.5,179.9z M388.5,181.1c-0.4,0-0.6,0.1-0.8,0.4s-0.3,0.8-0.3,1.7c0,0.8,0.1,1.3,0.3,1.6s0.4,0.5,0.8,0.5
		c0.3,0,0.6-0.1,0.8-0.4s0.3-0.8,0.3-1.6c0-0.8-0.1-1.4-0.3-1.7C389.2,181.3,388.9,181.1,388.5,181.1z"/>
	<path id="XMLID_66_" class="st1" d="M398.3,186.4h-1.9v-3.6c0-0.4,0-0.7-0.1-0.9c0-0.2-0.1-0.3-0.2-0.4c-0.1-0.1-0.3-0.2-0.5-0.2
		c-0.7,0-1,0.5-1,1.5v3.6h-1.9V180h1.8v1.1c0.3-0.5,0.6-0.8,0.9-1c0.3-0.1,0.6-0.2,0.9-0.2c0.6,0,1.1,0.2,1.5,0.5
		c0.4,0.3,0.6,1,0.6,1.9V186.4z"/>
	<path id="XMLID_68_" class="st1" d="M404.7,181.6l-1.4,0.4c-0.2-0.6-0.6-0.9-1.3-0.9c-0.6,0-1,0.2-1,0.6c0,0.2,0.1,0.3,0.2,0.4
		c0.1,0.1,0.4,0.2,0.9,0.2c0.7,0.1,1.3,0.2,1.6,0.3s0.6,0.3,0.8,0.6s0.3,0.7,0.3,1.1c0,0.7-0.3,1.2-0.8,1.6
		c-0.5,0.4-1.2,0.6-2.1,0.6c-1.6,0-2.6-0.6-2.9-1.9l1.6-0.2c0.1,0.6,0.6,0.9,1.4,0.9c0.3,0,0.6-0.1,0.8-0.2c0.2-0.1,0.3-0.3,0.3-0.5
		c0-0.3-0.2-0.5-0.7-0.5c-1.3-0.2-2.1-0.4-2.6-0.7c-0.4-0.3-0.6-0.8-0.6-1.4c0-0.6,0.2-1.1,0.7-1.5c0.5-0.4,1.1-0.6,2-0.6
		c0.7,0,1.2,0.1,1.6,0.4S404.5,181,404.7,181.6z"/>
	<path id="XMLID_70_" class="st1" d="M411.4,177.8v8.7h-2v-8.7H411.4z"/>
	<path id="XMLID_72_" class="st1" d="M418.6,186.4h-1.9v-3.6c0-0.4,0-0.7-0.1-0.9c0-0.2-0.1-0.3-0.2-0.4s-0.3-0.2-0.5-0.2
		c-0.7,0-1,0.5-1,1.5v3.6h-1.9V180h1.8v1.1c0.3-0.5,0.6-0.8,0.9-1s0.6-0.2,0.9-0.2c0.6,0,1.1,0.2,1.5,0.5c0.4,0.3,0.6,1,0.6,1.9
		V186.4z"/>
	<path id="XMLID_74_" class="st1" d="M426.8,186.6c-1.2,0-2.1-0.4-2.7-1.3c-0.6-0.9-1-1.9-1-3.2c0-1.3,0.3-2.3,1-3.2
		c0.6-0.8,1.6-1.3,2.8-1.3c1.2,0,2.1,0.5,2.7,1.4c0.6,0.9,0.9,1.9,0.9,3.1c0,1.3-0.3,2.3-1,3.2C428.9,186.1,428,186.6,426.8,186.6z
		 M426.9,179.3c-1.1,0-1.6,0.9-1.6,2.8c0,1.9,0.5,2.8,1.6,2.8c1,0,1.5-0.9,1.5-2.8C428.4,180.2,427.9,179.3,426.9,179.3z"/>
	<path id="XMLID_77_" class="st1" d="M437.3,186.4h-1.9v-3.6c0-0.4,0-0.7-0.1-0.9c0-0.2-0.1-0.3-0.2-0.4s-0.3-0.2-0.5-0.2
		c-0.7,0-1,0.5-1,1.5v3.6h-1.9V180h1.8v1.1c0.3-0.5,0.6-0.8,0.9-1s0.6-0.2,0.9-0.2c0.6,0,1.1,0.2,1.5,0.5c0.4,0.3,0.6,1,0.6,1.9
		V186.4z"/>
	<path id="XMLID_79_" class="st1" d="M444.7,183.6h-4.1c0,0.1,0,0.2,0,0.3c0,0.5,0.1,0.8,0.4,1c0.2,0.2,0.5,0.3,0.9,0.3
		c0.6,0,1-0.3,1.1-1l1.7,0.1c-0.5,1.5-1.5,2.2-2.9,2.2c-0.6,0-1.2-0.1-1.6-0.4s-0.8-0.6-1.1-1.1s-0.4-1.1-0.4-1.8
		c0-1,0.3-1.8,0.9-2.5c0.6-0.6,1.3-0.9,2.2-0.9c0.8,0,1.5,0.3,2.1,0.9C444.4,181.3,444.7,182.3,444.7,183.6z M440.5,182.5h2.3
		c-0.1-0.9-0.4-1.3-1.1-1.3C441,181.1,440.6,181.6,440.5,182.5z"/>
	<path id="XMLID_82_" class="st1" d="M456.2,181l-2.1,0.1c0-1.2-0.5-1.8-1.4-1.8c-1.1,0-1.6,0.9-1.6,2.8c0,1.1,0.1,1.8,0.4,2.2
		c0.3,0.4,0.7,0.6,1.2,0.6c0.8,0,1.4-0.5,1.5-1.6l2,0.1c-0.1,1-0.5,1.8-1.2,2.4c-0.6,0.5-1.4,0.8-2.4,0.8c-1.1,0-2.1-0.4-2.8-1.2
		c-0.7-0.8-1.1-1.9-1.1-3.3c0-1.3,0.3-2.4,1-3.2c0.7-0.8,1.6-1.3,2.8-1.3C454.7,177.6,455.9,178.8,456.2,181z"/>
	<path id="XMLID_84_" class="st1" d="M457.3,186.4v-8.7h1.9v8.7H457.3z"/>
	<path id="XMLID_86_" class="st1" d="M462.6,177.6v1.9h-1.9v-1.9H462.6z M462.6,180v6.4h-1.9V180H462.6z"/>
	<path id="XMLID_89_" class="st1" d="M469.8,184c-0.1,0.8-0.4,1.4-0.9,1.8c-0.5,0.5-1.2,0.7-2,0.7c-0.9,0-1.6-0.3-2.2-0.9
		s-0.9-1.4-0.9-2.4c0-1,0.3-1.8,0.9-2.4s1.4-0.9,2.3-0.9c0.8,0,1.4,0.2,1.9,0.7c0.5,0.5,0.8,1.1,0.9,1.8l-1.8,0.1
		c-0.1-0.8-0.4-1.2-1-1.2c-0.8,0-1.1,0.6-1.1,1.8c0,0.8,0.1,1.3,0.3,1.6c0.2,0.2,0.5,0.3,0.8,0.3c0.6,0,0.9-0.4,1-1.1L469.8,184z"/>
	<path id="XMLID_91_" class="st1" d="M475.1,182.2l2.1,4.2h-2.1l-1.3-2.9l-1.1,1.3v1.6h-1.8v-8.7h1.8v5.2l0.3-0.3
		c0.1-0.2,0.2-0.3,0.3-0.4l1.9-2.2h1.8L475.1,182.2z"/>
</g>
<path id="XMLID_46_" class="st2" d="M378.2,148.8C378.3,148.8,378.3,148.8,378.2,148.8"/>
<path id="XMLID_25_" class="st1" d="M333.7,143.3v5.2h-6.5v20.9H321v-20.9h-6.5v-5.2H333.7z"/>
<path id="XMLID_13_" class="st1" d="M342.4,159v10.3h-6.1v-26.1h11.5c2.1,0,3.8,0.2,5.1,0.7c1.3,0.5,2.3,1.4,3.2,2.7
	s1.3,2.8,1.3,4.4c0,3.1-1.5,5.4-4.5,6.7l4.8,11.5h-6.7l-4-10.3H342.4z M342.4,147.9v6.6h3.7c1.2,0,2.1-0.1,2.7-0.3
	c0.6-0.2,1-0.6,1.5-1.1c0.4-0.6,0.6-1.3,0.6-2c0-0.7-0.2-1.4-0.6-1.9c-0.4-0.6-0.9-0.9-1.4-1.1c-0.5-0.1-1.5-0.2-2.9-0.2H342.4z"/>
<path id="XMLID_30_" class="st1" d="M424.8,148.2h-12.4v5.3h9.8v4.9h-9.8v5.7h12.4v5.2h-18.6v-26.1h18.6V148.2z"/>
<path id="XMLID_36_" class="st1" d="M434.7,164.2h10.4v5.2h-16.6v-26.1h6.2V164.2z"/>
<path id="XMLID_38_" class="st1" d="M454.4,164.2h10.4v5.2h-16.6v-26.1h6.2V164.2z"/>
<path id="XMLID_40_" class="st1" d="M484.2,143.3l-8.2,15.1v11H470v-11l-8.2-15.1h7.1l5,9.9l4.9-9.9H484.2z"/>
<path id="XMLID_12_" class="st2" d="M482.2,157.3c-0.1,0.2-0.2,0.3-0.2,0.3C482.1,157.6,482.1,157.5,482.2,157.3z"/>
<path id="XMLID_11_" class="st2" d="M481.9,156.2c-0.3,0.5-0.5,0.9-0.6,1.1c0.2-0.3,0.5-0.7,0.9-1.1l-0.1-0.1L481.9,156.2z"/>
<g id="XMLID_10_">
	<path id="XMLID_44_" class="st1" d="M377.4,164.1c0,0,1.3-3.4,2.1-5.6l-0.8-2.5c-0.6-0.9-1.7-1.8-3.7-2.6c-4.2-1.6-4.8-4.9-4-6.8
		c0.1-0.1,0.3-0.1,0.3,0c0.2,0.7,1,2,2.9,2.4c0.8,0.2,1.7,0.4,2.5,0.6l-2-6.4h-7.1l-8.4,26.1h5.4l1.6-5.4h5.4l7-5.1l-2.5,6l-1.4-0.6
		l1.5,5.1h6.6l-2.6-8.5C379.1,161.8,377.8,163,377.4,164.1z M367.8,159.2l2.8-9.1l2.7,9.1H367.8z"/>
	<path id="XMLID_45_" class="st1" d="M376.3,161.6c-0.8-0.1-1.6,1.2-2.2,2.3h0.3c0.6-0.7,1.3-1.4,2.1-1.8
		C376.5,162.2,377.1,161.7,376.3,161.6z"/>
</g>
<g id="XMLID_9_">
	<path id="XMLID_19_" class="st1" d="M387.2,151.6c1.1,0.4,0.6,0.2,1,0.3c0.3,0.1,0.4-0.1,0.6,0.2c0,0-1.3,0.2-2,1.2
		c-0.1,0.2-0.2,0.3-0.3,0.4c-0.4,0.8-0.2,1.7,0.6,2.1c0.2,0.1,0.3,0.1,0.5,0.1c0.8,0.1,2.8,1.2,3.4,2.5c0.2,0.3,0.9,1.3,1.9,2.2
		l-4.9-17.4h-6.5l2.8,9.5C385.3,151.5,386.1,151.3,387.2,151.6z"/>
	<path id="XMLID_22_" class="st1" d="M398.8,143.3l-5.2,17.9c0.9,0.8,2,1.5,3,1.8c0.2,0,0.2,0.3,0,0.3c-1.9,0.4-6.4,1.1-9.3-1.9
		c-0.1-0.1-0.2-0.2-0.3-0.3l2.5,8.3h6.6l7.9-26.1H398.8z"/>
</g>
</svg>
